# xmcd
#
# Track frame offsets: 
#        150
#        19669
#        37714
#        57721
#        74944
#        94934
#        112475
#        135389
#        152740
#        169573
#        187088
#        200248
#        212739
#        232067
#        250008
#        261428
#        282657
#        301859
#        319503
#        338890
#
# Disc length: 4779 seconds
#
# Revision: 0
# Processed by: cddbd v1.5.2PL0 Copyright (c) Steve Scherf et al.
# Submitted via: ExactAudioCopy v0.95b4
#
DISCID=3a12a914
DTITLE=Various Artist - World's Best Mum 2007 [CD 1)
DYEAR=2007
DGENRE=Pop
TTITLE0=Leona Lewis - A Moment Like This
TTITLE1=Christina Aguilera - Beautiful
TTITLE2=George Michael - Amazing
TTITLE3=Beyonce - Irreplacable
TTITLE4=Jennifer Rush - The Power of Love
TTITLE5=Simon and Garfunkel - Mrs Robinson
TTITLE6=Luther Vandross - Love The One You're With
TTITLE7=Britney Spears - Everytime
TTITLE8=John Legend - Save Room
TTITLE9=Patrick Swayze feat. Wendy Fraser - She's Like The Wind
TTITLE10=Neil Diamond - Girl, You'll Be A Woman Soon
TTITLE11=Roy Orbinson - Crying
TTITLE12=Maroon 5 - She Will Be Loved
TTITLE13=Kelly Clarkson - Breakaway
TTITLE14=Sandi Thom - I Wish I Was A Punkrocker (With Flowers in My Ha
TTITLE14=ir)
TTITLE15=Eurythmics - There Must Be An Angel (Playing with My Heart)
TTITLE16=Dido - Here With Me
TTITLE17=Take That - A Million Love Songs
TTITLE18=Natasha Beddingfield - Unwritten
TTITLE19=Whitney Houston - My Love is Your Love
EXTD=
EXTT0=
EXTT1=
EXTT2=
EXTT3=
EXTT4=
EXTT5=
EXTT6=
EXTT7=
EXTT8=
EXTT9=
EXTT10=
EXTT11=
EXTT12=
EXTT13=
EXTT14=
EXTT15=
EXTT16=
EXTT17=
EXTT18=
EXTT19=
PLAYORDER=
